<svg xmlns:xlink="http://www.w3.org/1999/xlink" xmlns="http://www.w3.org/2000/svg" width="429" height="88.61006652084055" viewBox="0 0 370.18518518518516 76.46185054612805" class="css-1j8o68f"><defs id="SvgjsDefs4118"></defs><g id="SvgjsG4119" featurekey="symbolFeature-0" transform="matrix(0.765069356574423,0,0,0.765069356574423,0,-0.0007103374819373957)" fill="#FFFFFF"><g xmlns="http://www.w3.org/2000/svg" fill="#FFFFFF"><path fill="#FFFFFF" d="M60.075,16.761c0.158-3.73-0.895-6.594-3.128-8.507c-4.053-3.473-10.695-2.487-12.634-2.102l-0.05,0.01   l1.699,1.035c-0.996-3.224-6.144-5.843-10.712-6.762c-6.258-1.258-11.709,0.248-14.958,4.133l2.136-0.17   c-3.288-2.86-9.948-4.558-14.974-2.311C4.126,3.575,0.13,7.313,0,16.677l3.002,0.042C3.087,10.562,5.051,6.449,8.68,4.826   c4.168-1.862,9.518-0.131,11.779,1.835l1.154,1.004l0.982-1.174c3.58-4.282,9.629-3.605,12.063-3.115   c4.794,0.964,8.031,3.394,8.434,4.705l0.389,1.254l1.295-0.217c0.035-0.005,0.067-0.012,0.121-0.022   c3.305-0.656,7.692-0.623,10.095,1.437c1.499,1.284,2.2,3.337,2.083,6.103L60.075,16.761z"></path></g><path xmlns="http://www.w3.org/2000/svg" fill="#FFFFFF" d="M73.316,27.878c-5.6-3.789-10.614-0.379-14.201-5.03v-4.384h-8.028l-0.001,26.07v20.949l-0.002,6.904v0.647  h0.003v1.283c0,0.004-0.001,0.007-0.001,0.01h0.001l-0.003,0.684l-0.008-0.006c-0.206,10.37-5.07,12.58-9.165,12.58  c-4.097,0-8.961-2.21-9.167-12.579h-0.01V18.465H26.5v26.07l-0.001,20.949l-0.001,6.904v0.647c0,0,0.002,0,0.002,0v1.283  c0,0.004,0,0.007,0,0.01l0,0l-0.003,0.684l-0.007-0.006c-0.207,10.37-5.07,12.58-9.167,12.58s-8.96-2.21-9.167-12.579H8.147V18.465  H1.063v39.521c-0.011,0.256-0.018,0.515-0.018,0.775v28.68c0,7.493,4.5,12.501,10.053,12.501h37.966  c5.552,0,10.052-5.008,10.052-12.501v-3.449c1.097-0.838,2.905-1.36,5.821-1.199c12.188,0.674,17.693-7.99,19.276-14.385  C86.547,58.995,80.42,32.685,73.316,27.878z M66.181,76.305c-2.514,0.147-4.939-1.863-7.064-5.153v-12.39  c0-0.02-0.001-0.038-0.001-0.058V34.765c3.019-2.962,8.593-6.321,14.061,1.469C77.581,42.51,84.959,75.201,66.181,76.305z   M41.911,83.354c1.739,0,5.36,0,5.36-9.045c-0.002-0.433-0.003-0.74,0.008-0.971l-0.008,0.01V18.465H36.549  c0.001,13.725,0.003,54.883,0.003,54.884c-0.001,0.933-0.002,0.957-0.003,0.971C36.549,83.354,40.17,83.354,41.911,83.354z   M17.324,83.354c1.74,0,5.36,0,5.36-9.045c-0.001-0.433-0.002-0.74,0.01-0.971l-0.01,0.01V18.465H11.962  c0,13.725,0.003,54.883,0.003,54.884c-0.001,0.933-0.002,0.957-0.003,0.971C11.962,83.354,15.583,83.354,17.324,83.354z"></path></g><g id="SvgjsG4120" featurekey="nameFeature-0" transform="matrix(1.0414299919625172,0,0,1.0414299919625172,81.45913792800894,1.8360963828735528)" fill="#FFFFFF"><path d="M20.9 36.6 c0.36 0 0.6 0.24 0.6 0.6 l0 2.2 c0 0.36 -0.24 0.6 -0.6 0.6 l-16.9 0 c-0.36 0 -0.6 -0.24 -0.6 -0.6 l0 -26.8 c0 -0.36 0.24 -0.6 0.6 -0.6 l2.54 0 c0.36 0 0.6 0.24 0.6 0.6 l0 24 l13.76 0 z M49.34 39.32 c0.16 0.4 -0.04 0.68 -0.48 0.68 l-2.58 0 c-0.32 0 -0.54 -0.12 -0.68 -0.48 l-1.98 -5.38 l-12.84 0 l-1.98 5.38 c-0.14 0.36 -0.36 0.48 -0.68 0.48 l-2.58 0 c-0.44 0 -0.64 -0.28 -0.48 -0.68 l10.16 -26.84 c0.12 -0.32 0.4 -0.48 0.72 -0.48 l2.52 0 c0.32 0 0.6 0.16 0.72 0.48 z M32 30.84 l10.4 0 l-5.2 -14.16 z M88.1 12 c0.36 0 0.6 0.24 0.6 0.6 l0 2.2 c0 0.36 -0.24 0.6 -0.6 0.6 l-14.46 0 l0 8.56 l13.54 0 c0.36 0 0.6 0.24 0.6 0.6 l0 2.2 c0 0.36 -0.24 0.6 -0.6 0.6 l-13.54 0 l0 12.04 c0 0.36 -0.24 0.6 -0.6 0.6 l-2.54 0 c-0.36 0 -0.6 -0.24 -0.6 -0.6 l0 -26.8 c0 -0.36 0.24 -0.6 0.6 -0.6 l17.6 0 z M117.04 39.32 c0.16 0.4 -0.04 0.68 -0.48 0.68 l-2.58 0 c-0.32 0 -0.54 -0.12 -0.68 -0.48 l-1.98 -5.38 l-12.84 0 l-1.98 5.38 c-0.14 0.36 -0.36 0.48 -0.68 0.48 l-2.58 0 c-0.44 0 -0.64 -0.28 -0.48 -0.68 l10.16 -26.84 c0.12 -0.32 0.4 -0.48 0.72 -0.48 l2.52 0 c0.32 0 0.6 0.16 0.72 0.48 z M99.7 30.84 l10.4 0 l-5.2 -14.16 z M143.32 34.16 l1.6 1.68 c0.28 0.28 0.26 0.58 -0.02 0.84 c-2.56 2.44 -5.7 3.84 -9.54 3.84 c-7.96 0 -14.16 -6.4 -14.16 -14.4 c0 -8.06 6.2 -14.44 14.16 -14.44 c3.84 0 6.98 1.46 9.54 3.82 c0.28 0.26 0.3 0.56 0.02 0.84 l-1.6 1.7 c-0.28 0.28 -0.56 0.24 -0.84 0 c-1.98 -1.68 -4.22 -2.72 -7.12 -2.72 c-5.74 0 -10.34 4.62 -10.34 10.8 c0 6.12 4.6 10.74 10.34 10.74 c2.9 0 5.14 -1.02 7.12 -2.72 c0.28 -0.24 0.56 -0.26 0.84 0.02 z M172.18 12 c0.36 0 0.6 0.24 0.6 0.6 l0 16.08 c0 7.96 -4.3 11.9 -11.34 11.9 c-7.02 0 -11.32 -3.94 -11.32 -11.9 l0 -16.08 c0 -0.36 0.24 -0.6 0.6 -0.6 l2.54 0 c0.36 0 0.6 0.24 0.6 0.6 l0 16.08 c0 5.66 3 8.36 7.58 8.36 c4.6 0 7.6 -2.7 7.6 -8.36 l0 -16.08 c0 -0.36 0.24 -0.6 0.6 -0.6 l2.54 0 z M196.38000000000002 36.6 c0.36 0 0.6 0.24 0.6 0.6 l0 2.2 c0 0.36 -0.24 0.6 -0.6 0.6 l-16.9 0 c-0.36 0 -0.6 -0.24 -0.6 -0.6 l0 -26.8 c0 -0.36 0.24 -0.6 0.6 -0.6 l2.54 0 c0.36 0 0.6 0.24 0.6 0.6 l0 24 l13.76 0 z M221.98000000000002 12 c0.36 0 0.6 0.24 0.6 0.6 l0 2.2 c0 0.36 -0.24 0.6 -0.6 0.6 l-8.38 0 l0 24 c0 0.36 -0.24 0.6 -0.6 0.6 l-2.54 0 c-0.36 0 -0.6 -0.24 -0.6 -0.6 l0 -24 l-8.38 0 c-0.36 0 -0.6 -0.24 -0.6 -0.6 l0 -2.2 c0 -0.36 0.24 -0.6 0.6 -0.6 l20.5 0 z M250.32000000000002 39.32 c0.16 0.4 -0.04 0.68 -0.48 0.68 l-2.58 0 c-0.32 0 -0.54 -0.12 -0.68 -0.48 l-1.98 -5.38 l-12.84 0 l-1.98 5.38 c-0.14 0.36 -0.36 0.48 -0.68 0.48 l-2.58 0 c-0.44 0 -0.64 -0.28 -0.48 -0.68 l10.16 -26.84 c0.12 -0.32 0.4 -0.48 0.72 -0.48 l2.52 0 c0.32 0 0.6 0.16 0.72 0.48 z M232.98000000000002 30.84 l10.4 0 l-5.2 -14.16 z M262.58000000000004 12 c9.7 0 14.66 6.1 14.66 14 c0 7.88 -4.96 14 -14.66 14 l-6.7 0 c-0.36 0 -0.6 -0.24 -0.6 -0.6 l0 -26.8 c0 -0.36 0.24 -0.6 0.6 -0.6 l6.7 0 z M262.58000000000004 36.6 c7.26 0 10.86 -4.02 10.86 -10.6 c0 -6.6 -3.6 -10.6 -10.86 -10.6 l-3.56 0 l0 21.2 l3.56 0 z" fill="#FFFFFF"></path></g><g id="SvgjsG4121" featurekey="sloganFeature-0" transform="matrix(0.6010074456371473,0,0,0.6010074456371473,83.97828731375859,50.49612721095403)" fill="#FFFFFF"><path d="M10.55 18.3 c0.18 0 0.3 0.12 0.3 0.3 l0 1.1 c0 0.18 -0.12 0.3 -0.3 0.3 l-8.55 0 c-0.18 0 -0.3 -0.12 -0.3 -0.3 l0 -13.4 c0 -0.18 0.12 -0.3 0.3 -0.3 l8.53 0 c0.18 0 0.3 0.12 0.3 0.3 l0 1.1 c0 0.18 -0.12 0.3 -0.3 0.3 l-6.96 0 l0 4.15 l6.43 0 c0.18 0 0.3 0.12 0.3 0.3 l0 1.1 c0 0.18 -0.12 0.3 -0.3 0.3 l-6.43 0 l0 4.75 l6.98 0 z M22.65 18.3 c0.18 0 0.3 0.12 0.3 0.3 l0 1.1 c0 0.18 -0.12 0.3 -0.3 0.3 l-8.45 0 c-0.18 0 -0.3 -0.12 -0.3 -0.3 l0 -13.4 c0 -0.18 0.12 -0.3 0.3 -0.3 l1.27 0 c0.18 0 0.3 0.12 0.3 0.3 l0 12 l6.88 0 z M47.36 6 c0.18 0 0.3 0.12 0.3 0.3 l0 13.4 c0 0.18 -0.12 0.3 -0.3 0.3 l-1.27 0 c-0.18 0 -0.3 -0.12 -0.3 -0.3 l0 -10.15 l-4.29 10.22 c-0.06 0.16 -0.18 0.23 -0.34 0.23 l-1.24 0 c-0.16 0 -0.28 -0.07 -0.34 -0.23 l-4.26 -10.15 l0 10.08 c0 0.18 -0.12 0.3 -0.3 0.3 l-1.27 0 c-0.18 0 -0.3 -0.12 -0.3 -0.3 l0 -13.4 c0 -0.18 0.12 -0.3 0.3 -0.3 l1.59 0 c0.16 0 0.3 0.06 0.36 0.2 l4.85 11.69 l4.83 -11.69 c0.06 -0.14 0.2 -0.2 0.36 -0.2 l1.62 0 z M59.91 18.3 c0.18 0 0.3 0.12 0.3 0.3 l0 1.1 c0 0.18 -0.12 0.3 -0.3 0.3 l-8.55 0 c-0.18 0 -0.3 -0.12 -0.3 -0.3 l0 -13.4 c0 -0.18 0.12 -0.3 0.3 -0.3 l8.53 0 c0.18 0 0.3 0.12 0.3 0.3 l0 1.1 c0 0.18 -0.12 0.3 -0.3 0.3 l-6.96 0 l0 4.15 l6.43 0 c0.18 0 0.3 0.12 0.3 0.3 l0 1.1 c0 0.18 -0.12 0.3 -0.3 0.3 l-6.43 0 l0 4.75 l6.98 0 z M72.46000000000001 6 c0.18 0 0.3 0.12 0.3 0.3 l0 8.66 c0 3.69 -2.13 5.33 -5 5.33 c-2.84 0 -4.91 -1.55 -5.05 -5.03 c-0.01 -0.2 0.12 -0.3 0.3 -0.3 l1.24 0 c0.18 0 0.3 0.1 0.3 0.3 c0.13 2.24 1.39 3.26 3.21 3.26 c1.81 0 3.13 -1.05 3.13 -3.56 l0 -7.26 l-5.89 0 c-0.18 0 -0.3 -0.12 -0.3 -0.3 l0 -1.1 c0 -0.18 0.12 -0.3 0.3 -0.3 l7.46 0 z M82.68 20.26 c-3.96 0 -7.17 -3.2 -7.17 -7.2 c0 -4.02 3.21 -7.22 7.17 -7.22 c3.95 0 7.16 3.2 7.16 7.22 c0 4 -3.21 7.2 -7.16 7.2 z M82.68 18.49 c2.97 0 5.32 -2.4 5.32 -5.43 c0 -3.05 -2.35 -5.45 -5.32 -5.45 c-2.98 0 -5.33 2.4 -5.33 5.45 c0 3.03 2.35 5.43 5.33 5.43 z M100.18 14.57 l2.68 5.08 c0.11 0.21 0.01 0.35 -0.22 0.35 l-1.32 0 c-0.16 0 -0.27 -0.07 -0.35 -0.22 l-2.58 -4.99 l-0.29 0 l-3.39 0 l0 4.91 c0 0.18 -0.12 0.3 -0.3 0.3 l-1.27 0 c-0.18 0 -0.3 -0.12 -0.3 -0.3 l0 -13.4 c0 -0.18 0.12 -0.3 0.3 -0.3 l4.96 0 c3.69 0 5.04 1.56 5.04 4.39 c0 2.22 -0.83 3.66 -2.96 4.18 z M94.71000000000001 7.699999999999999 l0 5.39 l3.52 0 c1.86 0 3.1 -0.5 3.1 -2.7 c0 -2.19 -1.24 -2.69 -3.1 -2.69 l-3.52 0 z M124.86000000000001 19.66 c0.08 0.2 -0.02 0.34 -0.24 0.34 l-1.29 0 c-0.16 0 -0.27 -0.06 -0.34 -0.24 l-0.99 -2.69 l-6.42 0 l-0.99 2.69 c-0.07 0.18 -0.18 0.24 -0.34 0.24 l-1.29 0 c-0.22 0 -0.32 -0.14 -0.24 -0.34 l5.08 -13.42 c0.06 -0.16 0.2 -0.24 0.36 -0.24 l1.26 0 c0.16 0 0.3 0.08 0.36 0.24 z M116.19000000000001 15.42 l5.2 0 l-2.6 -7.08 z M141.25 6 c0.18 0 0.3 0.12 0.3 0.3 l0 13.4 c0 0.18 -0.12 0.3 -0.3 0.3 l-1.27 0 c-0.18 0 -0.3 -0.12 -0.3 -0.3 l0 -10.15 l-4.29 10.22 c-0.06 0.16 -0.18 0.23 -0.34 0.23 l-1.24 0 c-0.16 0 -0.28 -0.07 -0.34 -0.23 l-4.26 -10.15 l0 10.08 c0 0.18 -0.12 0.3 -0.3 0.3 l-1.27 0 c-0.18 0 -0.3 -0.12 -0.3 -0.3 l0 -13.4 c0 -0.18 0.12 -0.3 0.3 -0.3 l1.59 0 c0.16 0 0.3 0.06 0.36 0.2 l4.85 11.69 l4.83 -11.69 c0.06 -0.14 0.2 -0.2 0.36 -0.2 l1.62 0 z M151.76 12.440000000000001 c1.97 0.45 2.84 1.88 2.84 3.53 c0 2.77 -1.56 4.03 -4.97 4.03 l-4.63 0 c-0.18 0 -0.3 -0.12 -0.3 -0.3 l0 -13.4 c0 -0.18 0.12 -0.3 0.3 -0.3 l4.77 0 c3.13 0 4.13 1.7 4.13 3.39 c0 1.43 -0.65 2.59 -2.14 3.05 z M152.1 9.55 c0 -1.29 -0.81 -1.85 -2.5 -1.85 l-3.03 0 l0 4.05 l3.1 0 c1.63 0 2.43 -0.81 2.43 -2.2 z M149.6 18.3 c2.06 0 3.1 -0.62 3.1 -2.43 c0 -1.48 -0.88 -2.52 -3.02 -2.52 l-3.11 0 l0 4.95 l3.03 0 z M166.7 7.699999999999999 l-3.74 0 l0 10.6 l3.74 0 c0.18 0 0.3 0.12 0.3 0.3 l0 1.1 c0 0.18 -0.12 0.3 -0.3 0.3 l-9.35 0 c-0.18 0 -0.3 -0.12 -0.3 -0.3 l0 -1.1 c0 -0.18 0.12 -0.3 0.3 -0.3 l3.74 0 l0 -10.6 l-3.74 0 c-0.18 0 -0.3 -0.12 -0.3 -0.3 l0 -1.1 c0 -0.18 0.12 -0.3 0.3 -0.3 l9.35 0 c0.18 0 0.3 0.12 0.3 0.3 l0 1.1 c0 0.18 -0.12 0.3 -0.3 0.3 z M179 18.3 c0.18 0 0.3 0.12 0.3 0.3 l0 1.1 c0 0.18 -0.12 0.3 -0.3 0.3 l-8.55 0 c-0.18 0 -0.3 -0.12 -0.3 -0.3 l0 -13.4 c0 -0.18 0.12 -0.3 0.3 -0.3 l8.53 0 c0.18 0 0.3 0.12 0.3 0.3 l0 1.1 c0 0.18 -0.12 0.3 -0.3 0.3 l-6.96 0 l0 4.15 l6.43 0 c0.18 0 0.3 0.12 0.3 0.3 l0 1.1 c0 0.18 -0.12 0.3 -0.3 0.3 l-6.43 0 l0 4.75 l6.98 0 z M192.60999999999999 6 c0.18 0 0.3 0.12 0.3 0.3 l0 13.4 c0 0.16 -0.1 0.28 -0.25 0.3 l-1.64 0 c-0.16 0 -0.28 -0.06 -0.36 -0.2 l-6.44 -11.04 l0 10.94 c0 0.18 -0.12 0.3 -0.3 0.3 l-1.27 0 c-0.18 0 -0.3 -0.12 -0.3 -0.3 l0 -13.4 c0 -0.17 0.1 -0.28 0.26 -0.3 l1.63 0 c0.16 0 0.28 0.06 0.36 0.2 l6.44 11.03 l0 -10.93 c0 -0.18 0.12 -0.3 0.3 -0.3 l1.27 0 z M206.10999999999999 6 c0.18 0 0.3 0.12 0.3 0.3 l0 1.1 c0 0.18 -0.12 0.3 -0.3 0.3 l-4.19 0 l0 12 c0 0.18 -0.12 0.3 -0.3 0.3 l-1.27 0 c-0.18 0 -0.3 -0.12 -0.3 -0.3 l0 -12 l-4.19 0 c-0.18 0 -0.3 -0.12 -0.3 -0.3 l0 -1.1 c0 -0.18 0.12 -0.3 0.3 -0.3 l10.25 0 z M217.91 18.3 c0.18 0 0.3 0.12 0.3 0.3 l0 1.1 c0 0.18 -0.12 0.3 -0.3 0.3 l-8.55 0 c-0.18 0 -0.3 -0.12 -0.3 -0.3 l0 -13.4 c0 -0.18 0.12 -0.3 0.3 -0.3 l8.53 0 c0.18 0 0.3 0.12 0.3 0.3 l0 1.1 c0 0.18 -0.12 0.3 -0.3 0.3 l-6.96 0 l0 4.15 l6.43 0 c0.18 0 0.3 0.12 0.3 0.3 l0 1.1 c0 0.18 -0.12 0.3 -0.3 0.3 l-6.43 0 l0 4.75 l6.98 0 z M239.73999999999998 6 c0.18 0 0.3 0.12 0.3 0.3 l0 8.04 c0 3.98 -2.15 5.95 -5.67 5.95 c-3.51 0 -5.66 -1.97 -5.66 -5.95 l0 -8.04 c0 -0.18 0.12 -0.3 0.3 -0.3 l1.27 0 c0.18 0 0.3 0.12 0.3 0.3 l0 8.04 c0 2.83 1.5 4.18 3.79 4.18 c2.3 0 3.8 -1.35 3.8 -4.18 l0 -8.04 c0 -0.18 0.12 -0.3 0.3 -0.3 l1.27 0 z M253.35 6 c0.18 0 0.3 0.12 0.3 0.3 l0 13.4 c0 0.16 -0.1 0.28 -0.25 0.3 l-1.64 0 c-0.16 0 -0.28 -0.06 -0.36 -0.2 l-6.44 -11.04 l0 10.94 c0 0.18 -0.12 0.3 -0.3 0.3 l-1.27 0 c-0.18 0 -0.3 -0.12 -0.3 -0.3 l0 -13.4 c0 -0.17 0.1 -0.28 0.26 -0.3 l1.63 0 c0.16 0 0.28 0.06 0.36 0.2 l6.44 11.03 l0 -10.93 c0 -0.18 0.12 -0.3 0.3 -0.3 l1.27 0 z M266.45 7.699999999999999 l-3.74 0 l0 10.6 l3.74 0 c0.18 0 0.3 0.12 0.3 0.3 l0 1.1 c0 0.18 -0.12 0.3 -0.3 0.3 l-9.35 0 c-0.18 0 -0.3 -0.12 -0.3 -0.3 l0 -1.1 c0 -0.18 0.12 -0.3 0.3 -0.3 l3.74 0 l0 -10.6 l-3.74 0 c-0.18 0 -0.3 -0.12 -0.3 -0.3 l0 -1.1 c0 -0.18 0.12 -0.3 0.3 -0.3 l9.35 0 c0.18 0 0.3 0.12 0.3 0.3 l0 1.1 c0 0.18 -0.12 0.3 -0.3 0.3 z M279.25 6.24 c0.07 -0.18 0.18 -0.24 0.34 -0.24 l1.29 0 c0.22 0 0.32 0.14 0.24 0.34 l-5.08 13.42 c-0.06 0.16 -0.2 0.24 -0.36 0.24 l-1.26 0 c-0.16 0 -0.3 -0.08 -0.36 -0.24 l-5.08 -13.42 c-0.08 -0.2 0.02 -0.34 0.24 -0.34 l1.29 0 c0.16 0 0.27 0.06 0.34 0.24 l4.2 11.42 z M292.45 18.3 c0.18 0 0.3 0.12 0.3 0.3 l0 1.1 c0 0.18 -0.12 0.3 -0.3 0.3 l-8.55 0 c-0.18 0 -0.3 -0.12 -0.3 -0.3 l0 -13.4 c0 -0.18 0.12 -0.3 0.3 -0.3 l8.53 0 c0.18 0 0.3 0.12 0.3 0.3 l0 1.1 c0 0.18 -0.12 0.3 -0.3 0.3 l-6.96 0 l0 4.15 l6.43 0 c0.18 0 0.3 0.12 0.3 0.3 l0 1.1 c0 0.18 -0.12 0.3 -0.3 0.3 l-6.43 0 l0 4.75 l6.98 0 z M303.14 14.57 l2.68 5.08 c0.11 0.21 0.01 0.35 -0.22 0.35 l-1.32 0 c-0.16 0 -0.27 -0.07 -0.35 -0.22 l-2.58 -4.99 l-0.29 0 l-3.39 0 l0 4.91 c0 0.18 -0.12 0.3 -0.3 0.3 l-1.27 0 c-0.18 0 -0.3 -0.12 -0.3 -0.3 l0 -13.4 c0 -0.18 0.12 -0.3 0.3 -0.3 l4.96 0 c3.69 0 5.04 1.56 5.04 4.39 c0 2.22 -0.83 3.66 -2.96 4.18 z M297.66999999999996 7.699999999999999 l0 5.39 l3.52 0 c1.86 0 3.1 -0.5 3.1 -2.7 c0 -2.19 -1.24 -2.69 -3.1 -2.69 l-3.52 0 z M313.2 12.01 c2.72 0.56 5.21 1.37 5.21 4.33 c0 2.4 -1.61 3.96 -5.15 3.96 c-3.03 0 -4.85 -1.12 -5.06 -3.42 c-0.02 -0.2 0.1 -0.36 0.28 -0.36 l1.22 0 c0.18 0 0.28 0.14 0.3 0.3 c0.17 1.1 1.33 1.78 3.26 1.78 c2.13 0 3.31 -0.72 3.31 -2.24 c0 -1.77 -1.23 -2.15 -3.37 -2.65 c-2.54 -0.58 -4.68 -1.45 -4.68 -4.16 c0 -2.26 1.53 -3.72 4.62 -3.72 c2.86 0 4.62 1.09 4.85 3.35 c0.02 0.2 -0.1 0.3 -0.28 0.3 l-1.13 0 c-0.18 0 -0.28 -0.08 -0.3 -0.24 c-0.15 -1.02 -1.26 -1.74 -3.13 -1.74 c-1.72 0 -2.83 0.7 -2.83 2.05 c0 1.36 0.91 2.05 2.88 2.46 z M330.61 7.699999999999999 l-3.74 0 l0 10.6 l3.74 0 c0.18 0 0.3 0.12 0.3 0.3 l0 1.1 c0 0.18 -0.12 0.3 -0.3 0.3 l-9.35 0 c-0.18 0 -0.3 -0.12 -0.3 -0.3 l0 -1.1 c0 -0.18 0.12 -0.3 0.3 -0.3 l3.74 0 l0 -10.6 l-3.74 0 c-0.18 0 -0.3 -0.12 -0.3 -0.3 l0 -1.1 c0 -0.18 0.12 -0.3 0.3 -0.3 l9.35 0 c0.18 0 0.3 0.12 0.3 0.3 l0 1.1 c0 0.18 -0.12 0.3 -0.3 0.3 z M343.86 6 c0.18 0 0.3 0.12 0.3 0.3 l0 1.1 c0 0.18 -0.12 0.3 -0.3 0.3 l-4.19 0 l0 12 c0 0.18 -0.12 0.3 -0.3 0.3 l-1.27 0 c-0.18 0 -0.3 -0.12 -0.3 -0.3 l0 -12 l-4.19 0 c-0.18 0 -0.3 -0.12 -0.3 -0.3 l0 -1.1 c0 -0.18 0.12 -0.3 0.3 -0.3 l10.25 0 z M358.03000000000003 19.66 c0.08 0.2 -0.02 0.34 -0.24 0.34 l-1.29 0 c-0.16 0 -0.27 -0.06 -0.34 -0.24 l-0.99 -2.69 l-6.42 0 l-0.99 2.69 c-0.07 0.18 -0.18 0.24 -0.34 0.24 l-1.29 0 c-0.22 0 -0.32 -0.14 -0.24 -0.34 l5.08 -13.42 c0.06 -0.16 0.2 -0.24 0.36 -0.24 l1.26 0 c0.16 0 0.3 0.08 0.36 0.24 z M349.36 15.42 l5.2 0 l-2.6 -7.08 z M367.85 14.57 l2.68 5.08 c0.11 0.21 0.01 0.35 -0.22 0.35 l-1.32 0 c-0.16 0 -0.27 -0.07 -0.35 -0.22 l-2.58 -4.99 l-0.29 0 l-3.39 0 l0 4.91 c0 0.18 -0.12 0.3 -0.3 0.3 l-1.27 0 c-0.18 0 -0.3 -0.12 -0.3 -0.3 l0 -13.4 c0 -0.18 0.12 -0.3 0.3 -0.3 l4.96 0 c3.69 0 5.04 1.56 5.04 4.39 c0 2.22 -0.83 3.66 -2.96 4.18 z M362.38 7.699999999999999 l0 5.39 l3.52 0 c1.86 0 3.1 -0.5 3.1 -2.7 c0 -2.19 -1.24 -2.69 -3.1 -2.69 l-3.52 0 z M382.91 7.699999999999999 l-3.74 0 l0 10.6 l3.74 0 c0.18 0 0.3 0.12 0.3 0.3 l0 1.1 c0 0.18 -0.12 0.3 -0.3 0.3 l-9.35 0 c-0.18 0 -0.3 -0.12 -0.3 -0.3 l0 -1.1 c0 -0.18 0.12 -0.3 0.3 -0.3 l3.74 0 l0 -10.6 l-3.74 0 c-0.18 0 -0.3 -0.12 -0.3 -0.3 l0 -1.1 c0 -0.18 0.12 -0.3 0.3 -0.3 l9.35 0 c0.18 0 0.3 0.12 0.3 0.3 l0 1.1 c0 0.18 -0.12 0.3 -0.3 0.3 z M393.13000000000005 20.26 c-3.96 0 -7.17 -3.2 -7.17 -7.2 c0 -4.02 3.21 -7.22 7.17 -7.22 c3.95 0 7.16 3.2 7.16 7.22 c0 4 -3.21 7.2 -7.16 7.2 z M393.13000000000005 18.49 c2.97 0 5.32 -2.4 5.32 -5.43 c0 -3.05 -2.35 -5.45 -5.32 -5.45 c-2.98 0 -5.33 2.4 -5.33 5.45 c0 3.03 2.35 5.43 5.33 5.43 z" fill="#FFFFFF"></path></g></svg>